<svg xmlns="http://www.w3.org/2000/svg" viewBox="0 0 360 210" role="img" aria-label="편의점 수가 2006년 9847개에서 2014년 26874개로 증가한 막대그래프">
<style>
  .viz-title{font:700 15px 'Noto Sans KR',Arial,sans-serif;fill:#202124}
  .viz-label{font:700 13px 'Noto Sans KR',Arial,sans-serif;fill:#3c4043}
  .viz-small{font:500 11px 'Noto Sans KR',Arial,sans-serif;fill:#5f6368}
  .viz-axis{stroke:#9aa0a6;stroke-width:1.5}
  .viz-grid{stroke:#e8eaed;stroke-width:1}
  .viz-blue{fill:#1a73e8}.viz-green{fill:#34a853}.viz-yellow{fill:#f9ab00}.viz-red{fill:#ea4335}.viz-purple{fill:#8430ce}.viz-orange{fill:#e37400}
  .viz-line-blue{fill:none;stroke:#1a73e8;stroke-width:3;stroke-linecap:round;stroke-linejoin:round}.viz-line-green{fill:none;stroke:#34a853;stroke-width:3;stroke-linecap:round;stroke-linejoin:round}.viz-line-red{fill:none;stroke:#ea4335;stroke-width:3;stroke-linecap:round;stroke-linejoin:round}.viz-line-yellow{fill:none;stroke:#f9ab00;stroke-width:3;stroke-linecap:round;stroke-linejoin:round}.viz-line-purple{fill:none;stroke:#8430ce;stroke-width:3;stroke-linecap:round;stroke-linejoin:round}
  .viz-note{font:700 12px 'Noto Sans KR',Arial,sans-serif;fill:#1a73e8}
</style>
<rect width="100%" height="100%" rx="10" fill="#ffffff"/>
<text x="14" y="22" class="viz-title">편의점 수의 증가</text><line x1="35" y1="178" x2="340" y2="178" class="viz-axis"/><g fill="#f4f38a" stroke="#d4d057"><rect x="45" y="130" width="35" height="48"/><rect x="110" y="105" width="35" height="73"/><rect x="175" y="78" width="35" height="100"/><rect x="240" y="42" width="35" height="136"/><rect x="305" y="30" width="35" height="148"/></g><g fill="#1f77b4"><path d="M38 130 h49 l-5 -14 h-39z"/><path d="M103 105 h49 l-5 -14 h-39z"/><path d="M168 78 h49 l-5 -14 h-39z"/><path d="M233 42 h49 l-5 -14 h-39z"/><path d="M298 30 h49 l-5 -14 h-39z"/></g><g class="viz-label"><text x="39" y="122">9,847</text><text x="98" y="97">13,609</text><text x="163" y="70">17,919</text><text x="228" y="34">24,822</text><text x="293" y="22">26,874</text></g><g class="viz-small"><text x="43" y="197">2006</text><text x="108" y="197">2008</text><text x="173" y="197">2010</text><text x="238" y="197">2012</text><text x="303" y="197">2014</text></g>
</svg>
