<svg xmlns="http://www.w3.org/2000/svg" viewBox="0 0 760 260" role="img" aria-label="우리나라 혁신 도시의 위치와 특화 분야를 요약한 지도">
<style>
  .viz-title{font:700 15px 'Noto Sans KR',Arial,sans-serif;fill:#202124}
  .viz-label{font:700 13px 'Noto Sans KR',Arial,sans-serif;fill:#3c4043}
  .viz-small{font:500 11px 'Noto Sans KR',Arial,sans-serif;fill:#5f6368}
  .viz-axis{stroke:#9aa0a6;stroke-width:1.5}
  .viz-grid{stroke:#e8eaed;stroke-width:1}
  .viz-blue{fill:#1a73e8}.viz-green{fill:#34a853}.viz-yellow{fill:#f9ab00}.viz-red{fill:#ea4335}.viz-purple{fill:#8430ce}.viz-orange{fill:#e37400}
  .viz-line-blue{fill:none;stroke:#1a73e8;stroke-width:3;stroke-linecap:round;stroke-linejoin:round}.viz-line-green{fill:none;stroke:#34a853;stroke-width:3;stroke-linecap:round;stroke-linejoin:round}.viz-line-red{fill:none;stroke:#ea4335;stroke-width:3;stroke-linecap:round;stroke-linejoin:round}.viz-line-yellow{fill:none;stroke:#f9ab00;stroke-width:3;stroke-linecap:round;stroke-linejoin:round}.viz-line-purple{fill:none;stroke:#8430ce;stroke-width:3;stroke-linecap:round;stroke-linejoin:round}
  .viz-note{font:700 12px 'Noto Sans KR',Arial,sans-serif;fill:#1a73e8}
</style>
<rect width="100%" height="100%" rx="10" fill="#ffffff"/>
<text x="18" y="24" class="viz-title">혁신 도시 위치와 특화 분야</text><path d="M365 45 C430 65 455 118 430 165 C410 205 362 235 318 210 C280 188 282 140 300 102 C315 70 332 48 365 45Z" fill="#e8f0fe" stroke="#1a73e8"/><g fill="#34a853"><circle cx="350" cy="72" r="7"/><circle cx="330" cy="105" r="7"/><circle cx="372" cy="112" r="7"/><circle cx="350" cy="145" r="7"/><circle cx="390" cy="160" r="7"/><circle cx="330" cy="178" r="7"/><circle cx="370" cy="202" r="7"/></g><text x="500" y="74" class="viz-small">강원·충북·전북</text><text x="500" y="102" class="viz-small">대구·경북·경남·울산·부산</text><text x="500" y="130" class="viz-small">광주전남·제주 등</text><text x="500" y="165" class="viz-label">공공기관 이전 + 지역 특화 산업</text>
</svg>
