<svg xmlns="http://www.w3.org/2000/svg" viewBox="0 0 760 260" role="img" aria-label="도심의 주간과 야간 인구 차이를 보여주는 인구 공동화 그래프">
<style>
  .viz-title{font:700 15px 'Noto Sans KR',Arial,sans-serif;fill:#202124}
  .viz-label{font:700 13px 'Noto Sans KR',Arial,sans-serif;fill:#3c4043}
  .viz-small{font:500 11px 'Noto Sans KR',Arial,sans-serif;fill:#5f6368}
  .viz-axis{stroke:#9aa0a6;stroke-width:1.5}
  .viz-grid{stroke:#e8eaed;stroke-width:1}
  .viz-blue{fill:#1a73e8}.viz-green{fill:#34a853}.viz-yellow{fill:#f9ab00}.viz-red{fill:#ea4335}.viz-purple{fill:#8430ce}.viz-orange{fill:#e37400}
  .viz-line-blue{fill:none;stroke:#1a73e8;stroke-width:3;stroke-linecap:round;stroke-linejoin:round}.viz-line-green{fill:none;stroke:#34a853;stroke-width:3;stroke-linecap:round;stroke-linejoin:round}.viz-line-red{fill:none;stroke:#ea4335;stroke-width:3;stroke-linecap:round;stroke-linejoin:round}.viz-line-yellow{fill:none;stroke:#f9ab00;stroke-width:3;stroke-linecap:round;stroke-linejoin:round}.viz-line-purple{fill:none;stroke:#8430ce;stroke-width:3;stroke-linecap:round;stroke-linejoin:round}
  .viz-note{font:700 12px 'Noto Sans KR',Arial,sans-serif;fill:#1a73e8}
</style>
<rect width="100%" height="100%" rx="10" fill="#ffffff"/>
<text x="18" y="24" class="viz-title">인구 공동화</text><line x1="95" y1="210" x2="700" y2="210" class="viz-axis"/><line x1="95" y1="45" x2="95" y2="210" class="viz-axis"/><g opacity=".7"><line x1="95" y1="78" x2="700" y2="78" class="viz-grid"/><line x1="95" y1="122" x2="700" y2="122" class="viz-grid"/><line x1="95" y1="166" x2="700" y2="166" class="viz-grid"/></g><path d="M100 170 C190 140 250 70 330 142 C380 190 430 190 480 142 C560 70 620 140 700 170" fill="none" stroke="#00897b" stroke-width="5"/><path d="M100 190 C210 178 300 130 360 72 C420 18 500 80 560 130 C620 178 670 188 700 190" fill="none" stroke="#fb8c00" stroke-width="5"/><path d="M310 82 C355 135 405 173 457 82" fill="url(#hatch)" opacity=".45" stroke="#8e24aa"/><defs><pattern id="hatch" width="8" height="8" patternUnits="userSpaceOnUse" patternTransform="rotate(45)"><line x1="0" y1="0" x2="0" y2="8" stroke="#8e24aa" stroke-width="2"/></pattern></defs><text x="220" y="74" class="viz-label">야간 인구</text><text x="355" y="54" class="viz-label">주간 인구</text><text x="268" y="92" class="viz-note">인구 공동화</text><text x="110" y="232" class="viz-label">주변 지역</text><text x="360" y="232" class="viz-label">도심</text><text x="595" y="232" class="viz-label">주변 지역</text>
</svg>
