<svg xmlns="http://www.w3.org/2000/svg" viewBox="0 0 360 210" role="img" aria-label="1인 가구 비율이 1980년 4.8퍼센트에서 2015년 27.2퍼센트로 증가한 막대그래프">
<style>
  .viz-title{font:700 15px 'Noto Sans KR',Arial,sans-serif;fill:#202124}
  .viz-label{font:700 13px 'Noto Sans KR',Arial,sans-serif;fill:#3c4043}
  .viz-small{font:500 11px 'Noto Sans KR',Arial,sans-serif;fill:#5f6368}
  .viz-axis{stroke:#9aa0a6;stroke-width:1.5}
  .viz-grid{stroke:#e8eaed;stroke-width:1}
  .viz-blue{fill:#1a73e8}.viz-green{fill:#34a853}.viz-yellow{fill:#f9ab00}.viz-red{fill:#ea4335}.viz-purple{fill:#8430ce}.viz-orange{fill:#e37400}
  .viz-line-blue{fill:none;stroke:#1a73e8;stroke-width:3;stroke-linecap:round;stroke-linejoin:round}.viz-line-green{fill:none;stroke:#34a853;stroke-width:3;stroke-linecap:round;stroke-linejoin:round}.viz-line-red{fill:none;stroke:#ea4335;stroke-width:3;stroke-linecap:round;stroke-linejoin:round}.viz-line-yellow{fill:none;stroke:#f9ab00;stroke-width:3;stroke-linecap:round;stroke-linejoin:round}.viz-line-purple{fill:none;stroke:#8430ce;stroke-width:3;stroke-linecap:round;stroke-linejoin:round}
  .viz-note{font:700 12px 'Noto Sans KR',Arial,sans-serif;fill:#1a73e8}
</style>
<rect width="100%" height="100%" rx="10" fill="#ffffff"/>
<text x="14" y="22" class="viz-title">1인 가구 비율</text><line x1="35" y1="178" x2="340" y2="178" class="viz-axis"/><g fill="#f7e4b6" stroke="#edc98f"><rect x="45" y="150" width="35" height="28"/><rect x="110" y="130" width="35" height="48"/><rect x="175" y="98" width="35" height="80"/><rect x="240" y="58" width="35" height="120"/><rect x="305" y="42" width="35" height="136"/></g><g fill="#f4a582"><path d="M37 150 l25 -20 l25 20z"/><path d="M102 130 l25 -20 l25 20z"/><path d="M167 98 l25 -20 l25 20z"/><path d="M232 58 l25 -20 l25 20z"/><path d="M297 42 l25 -20 l25 20z"/></g><g class="viz-label"><text x="45" y="124">4.8</text><text x="111" y="104">9.0</text><text x="174" y="72">15.5</text><text x="238" y="32">23.9</text><text x="303" y="18">27.2</text></g><g class="viz-small"><text x="42" y="197">1980</text><text x="107" y="197">1990</text><text x="172" y="197">2000</text><text x="237" y="197">2010</text><text x="302" y="197">2015</text></g>
</svg>
